<svg width="13" height="12" viewBox="0 0 13 12" fill="none" xmlns="http://www.w3.org/2000/svg">
<path fill-rule="evenodd" clip-rule="evenodd" d="M12.9994 5.99997C12.9994 6.19888 12.9204 6.38965 12.7797 6.5303C12.6391 6.67095 12.4483 6.74997 12.2494 6.74997H3.55989L6.78039 9.96897C6.85012 10.0387 6.90543 10.1215 6.94317 10.2126C6.98091 10.3037 7.00033 10.4014 7.00033 10.5C7.00033 10.5986 6.98091 10.6962 6.94317 10.7873C6.90543 10.8785 6.85012 10.9612 6.78039 11.031C6.71066 11.1007 6.62787 11.156 6.53676 11.1938C6.44565 11.2315 6.348 11.2509 6.24939 11.2509C6.15077 11.2509 6.05312 11.2315 5.96201 11.1938C5.8709 11.156 5.78812 11.1007 5.71839 11.031L1.21839 6.53097C1.14854 6.4613 1.09313 6.37854 1.05532 6.28742C1.01751 6.1963 0.998047 6.09862 0.998047 5.99997C0.998047 5.90132 1.01751 5.80364 1.05532 5.71252C1.09313 5.6214 1.14854 5.53864 1.21839 5.46897L5.71839 0.968971C5.85922 0.828141 6.05022 0.749023 6.24939 0.749023C6.44855 0.749023 6.63956 0.828141 6.78039 0.968971C6.92122 1.1098 7.00033 1.30081 7.00033 1.49997C7.00033 1.69913 6.92122 1.89014 6.78039 2.03097L3.55989 5.24997H12.2494C12.4483 5.24997 12.6391 5.32899 12.7797 5.46964C12.9204 5.61029 12.9994 5.80106 12.9994 5.99997Z" fill="#F6F6F6"/>
</svg>
