<svg width="16" height="16" viewBox="0 0 16 16" fill="none" xmlns="http://www.w3.org/2000/svg">
<g clip-path="url(#clip0_3493_172)">
<path d="M5.35161 12.4187C5.35161 12.4812 5.27742 12.5312 5.18387 12.5312C5.07742 12.5406 5.00323 12.4906 5.00323 12.4187C5.00323 12.3562 5.07742 12.3062 5.17097 12.3062C5.26774 12.2969 5.35161 12.3469 5.35161 12.4187ZM4.34839 12.2781C4.32581 12.3406 4.39032 12.4125 4.4871 12.4312C4.57097 12.4625 4.66774 12.4312 4.6871 12.3687C4.70645 12.3062 4.64516 12.2344 4.54839 12.2063C4.46452 12.1844 4.37097 12.2156 4.34839 12.2781ZM5.77419 12.225C5.68064 12.2469 5.61613 12.3063 5.62581 12.3781C5.63548 12.4406 5.71935 12.4813 5.81613 12.4594C5.90968 12.4375 5.97419 12.3781 5.96452 12.3156C5.95484 12.2563 5.86774 12.2156 5.77419 12.225ZM7.89677 0.25C3.42258 0.25 0 3.54063 0 7.875C0 11.3406 2.25161 14.3063 5.46774 15.35C5.88064 15.4219 6.02581 15.175 6.02581 14.9719C6.02581 14.7781 6.01613 13.7094 6.01613 13.0531C6.01613 13.0531 3.75806 13.5219 3.28387 12.1219C3.28387 12.1219 2.91613 11.2125 2.3871 10.9781C2.3871 10.9781 1.64839 10.4875 2.43871 10.4969C2.43871 10.4969 3.24194 10.5594 3.68387 11.3031C4.39032 12.5094 5.57419 12.1625 6.03548 11.9563C6.10968 11.4563 6.31936 11.1094 6.55161 10.9031C4.74839 10.7094 2.92903 10.4562 2.92903 7.45C2.92903 6.59062 3.17419 6.15938 3.69032 5.60938C3.60645 5.40625 3.33226 4.56875 3.77419 3.4875C4.44839 3.28437 6 4.33125 6 4.33125C6.64516 4.15625 7.33871 4.06563 8.02581 4.06563C8.7129 4.06563 9.40645 4.15625 10.0516 4.33125C10.0516 4.33125 11.6032 3.28125 12.2774 3.4875C12.7194 4.57188 12.4452 5.40625 12.3613 5.60938C12.8774 6.1625 13.1935 6.59375 13.1935 7.45C13.1935 10.4656 11.2935 10.7063 9.49032 10.9031C9.7871 11.15 10.0387 11.6187 10.0387 12.3531C10.0387 13.4062 10.029 14.7094 10.029 14.9656C10.029 15.1687 10.1774 15.4156 10.5871 15.3438C13.8129 14.3062 16 11.3406 16 7.875C16 3.54063 12.371 0.25 7.89677 0.25ZM3.13548 11.0281C3.09355 11.0594 3.10323 11.1313 3.15806 11.1906C3.20968 11.2406 3.28387 11.2625 3.32581 11.2219C3.36774 11.1906 3.35806 11.1187 3.30323 11.0594C3.25161 11.0094 3.17742 10.9875 3.13548 11.0281ZM2.7871 10.775C2.76452 10.8156 2.79677 10.8656 2.86129 10.8969C2.9129 10.9281 2.97742 10.9187 3 10.875C3.02258 10.8344 2.99032 10.7844 2.92581 10.7531C2.86129 10.7344 2.80968 10.7437 2.7871 10.775ZM3.83226 11.8875C3.78065 11.9281 3.8 12.0219 3.87419 12.0813C3.94839 12.1531 4.04194 12.1625 4.08387 12.1125C4.12581 12.0719 4.10645 11.9781 4.04194 11.9187C3.97097 11.8469 3.87419 11.8375 3.83226 11.8875ZM3.46452 11.4281C3.4129 11.4594 3.4129 11.5406 3.46452 11.6125C3.51613 11.6844 3.60323 11.7156 3.64516 11.6844C3.69677 11.6438 3.69677 11.5625 3.64516 11.4906C3.6 11.4188 3.51613 11.3875 3.46452 11.4281Z" fill="black"/>
</g>
<defs>
<clipPath id="clip0_3493_172">
<rect width="16" height="16" fill="white"/>
</clipPath>
</defs>
</svg>
