<svg width="126" height="83" viewBox="0 0 126 83" fill="none" xmlns="http://www.w3.org/2000/svg">
<g clip-path="url(#clip0_3171_6399)">
<path fill-rule="evenodd" clip-rule="evenodd" d="M50.2018 0C49.76 0 49.4019 0.358171 49.4019 0.799999V19.9529C49.4019 26.6063 54.7948 32 61.4474 32C61.8632 32 62.2003 31.6629 62.2003 31.2471V0.8C62.2003 0.358172 61.8421 0 61.4004 0H50.2018ZM55.8011 1.6C55.8011 4.25097 53.6523 6.4 51.0017 6.4C53.6523 6.4 55.8011 8.54903 55.8011 11.2C55.8011 8.54903 57.9498 6.4 60.6005 6.4C57.9498 6.4 55.8011 4.25097 55.8011 1.6Z" fill="#A3ECE1"/>
<path fill-rule="evenodd" clip-rule="evenodd" d="M64.6001 32C64.1584 32 63.8002 31.6418 63.8002 31.2L63.8002 12.0471C63.8002 5.39365 69.1932 5.81659e-07 75.8458 0C76.2616 -3.63537e-08 76.5986 0.337103 76.5986 0.752942L76.5986 31.2C76.5986 31.6418 76.2405 32 75.7987 32H64.6001ZM70.1994 30.4C70.1994 27.749 68.0507 25.6 65.4 25.6C68.0507 25.6 70.1994 23.451 70.1994 20.8C70.1994 23.451 72.3482 25.6 74.9988 25.6C72.3482 25.6 70.1994 27.749 70.1994 30.4Z" fill="#A3ECE1"/>
</g>
<path d="M23.8 60.288C22.344 60.288 21.104 60.032 20.08 59.52C19.056 58.992 18.272 58.256 17.728 57.312C17.184 56.368 16.912 55.264 16.912 54V43.248H20.872V54C20.872 54.624 20.992 55.16 21.232 55.608C21.472 56.056 21.808 56.408 22.24 56.664C22.688 56.904 23.208 57.024 23.8 57.024C24.408 57.024 24.928 56.904 25.36 56.664C25.792 56.408 26.128 56.056 26.368 55.608C26.608 55.16 26.728 54.624 26.728 54V43.248H30.688V54C30.688 55.264 30.416 56.368 29.872 57.312C29.328 58.256 28.544 58.992 27.52 59.52C26.496 60.032 25.256 60.288 23.8 60.288ZM42.0254 60V51.768C42.0254 51.08 41.8494 50.528 41.4974 50.112C41.1454 49.696 40.6814 49.488 40.1054 49.488C39.4494 49.488 38.8414 49.712 38.2814 50.16C37.7374 50.592 37.1614 51.344 36.5534 52.416L36.0254 49.248C36.6334 48.208 37.3694 47.472 38.2334 47.04C39.0974 46.592 39.9774 46.368 40.8734 46.368C41.8974 46.368 42.7694 46.584 43.4894 47.016C44.2254 47.448 44.7854 48.048 45.1694 48.816C45.5694 49.584 45.7694 50.488 45.7694 51.528V60H42.0254ZM33.1214 60V46.656H36.7454L36.8654 49.032V60H33.1214ZM53.1468 60V46.656H56.8908V60H53.1468ZM48.8268 60V56.976H61.2588V60H48.8268ZM50.5068 49.68V46.656H55.0188V49.68H50.5068ZM53.0028 44.88V41.376H56.9868V44.88H53.0028ZM67.1721 53.736V50.496H70.9401C71.4201 50.496 71.8361 50.408 72.1881 50.232C72.5561 50.056 72.8361 49.808 73.0281 49.488C73.2361 49.168 73.3401 48.808 73.3401 48.408C73.3401 48.024 73.2441 47.688 73.0521 47.4C72.8761 47.112 72.6281 46.888 72.3081 46.728C71.9881 46.568 71.6201 46.488 71.2041 46.488H67.1721V43.248H71.2041C72.4201 43.248 73.4921 43.456 74.4201 43.872C75.3641 44.272 76.1001 44.856 76.6281 45.624C77.1561 46.392 77.4201 47.32 77.4201 48.408C77.4201 49.064 77.2601 49.712 76.9401 50.352C76.6361 50.976 76.1881 51.544 75.5961 52.056C75.0201 52.568 74.3161 52.976 73.4841 53.28C72.6681 53.584 71.7401 53.736 70.7001 53.736H67.1721ZM64.3161 60V43.248H68.2761V60H64.3161ZM73.4361 60C73.4361 59.296 73.3081 58.584 73.0521 57.864C72.7961 57.128 72.4201 56.432 71.9241 55.776C71.4441 55.104 70.8441 54.496 70.1241 53.952C69.4041 53.408 68.5721 52.968 67.6281 52.632L72.0201 51.744C72.9481 52.208 73.7561 52.76 74.4441 53.4C75.1321 54.04 75.7001 54.728 76.1481 55.464C76.6121 56.2 76.9561 56.96 77.1801 57.744C77.4041 58.512 77.5161 59.264 77.5161 60H73.4361ZM86.3575 60.288C84.9175 60.288 83.6775 60.008 82.6375 59.448C81.6135 58.888 80.8215 58.088 80.2615 57.048C79.7015 56.008 79.4215 54.768 79.4215 53.328C79.4215 51.872 79.7015 50.624 80.2615 49.584C80.8215 48.544 81.6295 47.752 82.6855 47.208C83.7575 46.648 85.0455 46.368 86.5495 46.368C88.9015 46.368 90.6055 47.04 91.6615 48.384C92.7335 49.712 93.1815 51.544 93.0055 53.88H82.3975L82.4215 51.312H89.1895C89.1415 50.704 88.8695 50.216 88.3735 49.848C87.8775 49.464 87.2615 49.272 86.5255 49.272C85.3735 49.272 84.5255 49.632 83.9815 50.352C83.4375 51.072 83.1655 52.12 83.1655 53.496C83.1655 54.184 83.2855 54.816 83.5255 55.392C83.7655 55.968 84.1175 56.432 84.5815 56.784C85.0615 57.12 85.6535 57.288 86.3575 57.288C87.1095 57.288 87.7415 57.104 88.2535 56.736C88.7815 56.368 89.1015 55.904 89.2135 55.344H92.9575C92.7975 56.864 92.1255 58.072 90.9415 58.968C89.7735 59.848 88.2455 60.288 86.3575 60.288ZM102.951 46.368C104.119 46.368 105.143 46.68 106.023 47.304C106.919 47.912 107.623 48.744 108.135 49.8C108.647 50.856 108.903 52.032 108.903 53.328C108.903 54.608 108.647 55.776 108.135 56.832C107.623 57.888 106.919 58.728 106.023 59.352C105.143 59.976 104.119 60.288 102.951 60.288C102.183 60.288 101.471 60.152 100.815 59.88C100.159 59.592 99.5989 59.208 99.1349 58.728V64.272H95.3909V46.656H99.0149L99.0869 47.952C99.5509 47.456 100.111 47.072 100.767 46.8C101.439 46.512 102.167 46.368 102.951 46.368ZM101.991 57.216C102.615 57.216 103.159 57.04 103.623 56.688C104.103 56.336 104.479 55.872 104.751 55.296C105.023 54.704 105.159 54.048 105.159 53.328C105.159 52.592 105.023 51.936 104.751 51.36C104.479 50.768 104.103 50.304 103.623 49.968C103.159 49.616 102.615 49.44 101.991 49.44C101.335 49.44 100.751 49.64 100.239 50.04C99.7269 50.44 99.3589 50.976 99.1349 51.648V54.984C99.3589 55.656 99.7269 56.2 100.239 56.616C100.751 57.016 101.335 57.216 101.991 57.216Z" fill="white"/>
<path d="M4.76 78.168C3.91067 78.168 3.17333 77.9487 2.548 77.51C1.92267 77.062 1.442 76.4553 1.106 75.69C0.77 74.9247 0.602 74.0613 0.602 73.1C0.602 72.0733 0.779333 71.182 1.134 70.426C1.48867 69.67 1.97867 69.0867 2.604 68.676C3.23867 68.2653 3.96667 68.06 4.788 68.06C5.46933 68.06 6.07133 68.1953 6.594 68.466C7.126 68.7273 7.56 69.1007 7.896 69.586C8.232 70.0713 8.43267 70.6453 8.498 71.308H7.462C7.378 70.58 7.09333 69.9967 6.608 69.558C6.12267 69.1193 5.50667 68.9 4.76 68.9C4.13467 68.9 3.584 69.0773 3.108 69.432C2.632 69.7773 2.26333 70.2673 2.002 70.902C1.74067 71.5367 1.61 72.274 1.61 73.114C1.61 73.9727 1.74533 74.7193 2.016 75.354C2.296 75.9793 2.674 76.4647 3.15 76.81C3.626 77.1553 4.16267 77.328 4.76 77.328C5.28267 77.328 5.74 77.2207 6.132 77.006C6.524 76.7913 6.84133 76.4927 7.084 76.11C7.32667 75.7273 7.46667 75.284 7.504 74.78H8.554C8.48867 75.452 8.29267 76.0447 7.966 76.558C7.63933 77.0713 7.20067 77.468 6.65 77.748C6.10867 78.028 5.47867 78.168 4.76 78.168ZM17.8555 78V68.228H24.7155V69.068H18.7795V72.512H23.0075V73.352H18.7795V77.16H24.7715V78H17.8555ZM35.2489 73.618V72.792H37.9089C38.4036 72.792 38.8423 72.7127 39.2249 72.554C39.6169 72.3953 39.9203 72.1713 40.1349 71.882C40.3589 71.5833 40.4709 71.238 40.4709 70.846C40.4709 70.4727 40.3729 70.1553 40.1769 69.894C39.9903 69.6327 39.7336 69.432 39.4069 69.292C39.0803 69.1427 38.7163 69.068 38.3149 69.068H35.2489V68.228H38.3149C38.9216 68.228 39.4629 68.3307 39.9389 68.536C40.4149 68.7413 40.7883 69.04 41.0589 69.432C41.3389 69.824 41.4789 70.2953 41.4789 70.846C41.4789 71.21 41.3949 71.56 41.2269 71.896C41.0683 72.232 40.8349 72.5307 40.5269 72.792C40.2189 73.044 39.8409 73.2447 39.3929 73.394C38.9543 73.5433 38.4503 73.618 37.8809 73.618H35.2489ZM34.5769 78V68.228H35.5149V78H34.5769ZM40.3869 78C40.2936 77.5427 40.1489 77.0993 39.9529 76.67C39.7569 76.2407 39.4956 75.83 39.1689 75.438C38.8423 75.046 38.4409 74.6727 37.9649 74.318C37.4983 73.9633 36.9429 73.632 36.2989 73.324L37.3489 73.058C38.0209 73.394 38.5903 73.7487 39.0569 74.122C39.5329 74.4953 39.9249 74.892 40.2329 75.312C40.5503 75.7227 40.7929 76.152 40.9609 76.6C41.1383 77.048 41.2596 77.5147 41.3249 78H40.3869ZM51.0464 78V68.228H57.9064V69.068H51.9704V72.512H56.1984V73.352H51.9704V77.16H57.9624V78H51.0464ZM66.8439 78L67.6139 68.228H68.9019L70.6239 75.144L70.9319 76.628L71.2539 75.144L73.0039 68.228H74.2639L75.0479 78H74.1239L73.6059 71.028L73.5219 69.25L73.1159 71.028L71.3659 78H70.4419L68.7339 71.028L68.3699 69.208L68.2579 71.028L67.7539 78H66.8439ZM87.5413 78.168C86.7293 78.168 86.0247 77.9627 85.4273 77.552C84.83 77.132 84.368 76.544 84.0413 75.788C83.7147 75.0227 83.5513 74.1313 83.5513 73.114C83.5513 72.0967 83.7147 71.21 84.0413 70.454C84.368 69.6887 84.83 69.1007 85.4273 68.69C86.0247 68.27 86.7293 68.06 87.5413 68.06C88.3533 68.06 89.058 68.27 89.6553 68.69C90.2527 69.1007 90.7147 69.6887 91.0413 70.454C91.368 71.21 91.5313 72.0967 91.5313 73.114C91.5313 74.1313 91.368 75.0227 91.0413 75.788C90.7147 76.544 90.2527 77.132 89.6553 77.552C89.058 77.9627 88.3533 78.168 87.5413 78.168ZM87.5413 77.328C88.148 77.328 88.6753 77.1553 89.1233 76.81C89.5713 76.4553 89.9167 75.9607 90.1593 75.326C90.4113 74.6913 90.5373 73.954 90.5373 73.114C90.5373 72.274 90.4113 71.5367 90.1593 70.902C89.9167 70.2673 89.5713 69.7773 89.1233 69.432C88.6753 69.0773 88.148 68.9 87.5413 68.9C86.9347 68.9 86.4073 69.0773 85.9593 69.432C85.5113 69.7867 85.1613 70.2813 84.9093 70.916C84.6667 71.5413 84.5453 72.274 84.5453 73.114C84.5453 73.954 84.6667 74.6913 84.9093 75.326C85.1613 75.9607 85.5113 76.4553 85.9593 76.81C86.4073 77.1553 86.9347 77.328 87.5413 77.328ZM100.665 78V68.228H101.785L106.755 76.684L106.671 74.024V68.228H107.595V78H106.489L101.505 69.6L101.589 72.19V78H100.665ZM120.228 78V74.038L116.882 68.228H117.946L119.78 71.406L120.704 73.17L121.656 71.392L123.49 68.228H124.54L121.166 74.038V78H120.228Z" fill="url(#paint0_linear_3171_6399)"/>
<defs>
<linearGradient id="paint0_linear_3171_6399" x1="0" y1="63" x2="5.76621" y2="99.9037" gradientUnits="userSpaceOnUse">
<stop stop-color="#FEE4CB"/>
<stop offset="1" stop-color="#DBF2F2"/>
</linearGradient>
<clipPath id="clip0_3171_6399">
<rect width="27.1966" height="32" fill="white" transform="translate(49.4019)"/>
</clipPath>
</defs>
</svg>
