<svg width="251" height="68" viewBox="0 0 251 68" fill="none" xmlns="http://www.w3.org/2000/svg">
<g clip-path="url(#clip0_3190_168)">
<path fill-rule="evenodd" clip-rule="evenodd" d="M1.5998 0C0.716255 0 0 0.716343 0 1.6V39.9059C0 53.2127 10.786 64 24.0911 64C24.9227 64 25.5968 63.3258 25.5968 62.4941V1.6C25.5968 0.716344 24.8806 0 23.997 0H1.5998ZM12.7984 3.2C12.7984 8.50193 8.50088 12.8 3.1996 12.8C8.50088 12.8 12.7984 17.0981 12.7984 22.4C12.7984 17.0981 17.0959 12.8 22.3972 12.8C17.0959 12.8 12.7984 8.50193 12.7984 3.2Z" fill="#A3ECE1"/>
<path fill-rule="evenodd" clip-rule="evenodd" d="M30.3961 64C29.5125 64 28.7963 63.2837 28.7963 62.4L28.7962 24.0941C28.7962 10.7873 39.5822 1.16332e-06 52.8874 0C53.7189 -7.27074e-08 54.3931 0.674206 54.3931 1.50588L54.3931 62.4C54.3931 63.2837 53.6768 64 52.7933 64H30.3961ZM41.5947 60.8C41.5947 55.4981 37.2971 51.2 31.9959 51.2C37.2971 51.2 41.5947 46.9019 41.5947 41.6C41.5947 46.9019 45.8922 51.2 51.1935 51.2C45.8922 51.2 41.5947 55.4981 41.5947 60.8Z" fill="#A3ECE1"/>
</g>
<path d="M77.9931 40.576C75.0811 40.576 72.6011 40.064 70.5531 39.04C68.5051 37.984 66.9371 36.512 65.8491 34.624C64.7611 32.736 64.2171 30.528 64.2171 28V6.496H72.1371V28C72.1371 29.248 72.3771 30.32 72.8571 31.216C73.3371 32.112 74.0091 32.816 74.8731 33.328C75.7691 33.808 76.8091 34.048 77.9931 34.048C79.2091 34.048 80.2491 33.808 81.1131 33.328C81.9771 32.816 82.6491 32.112 83.1291 31.216C83.6091 30.32 83.8491 29.248 83.8491 28V6.496H91.7691V28C91.7691 30.528 91.2251 32.736 90.1371 34.624C89.0491 36.512 87.4811 37.984 85.4331 39.04C83.3851 40.064 80.9051 40.576 77.9931 40.576ZM114.444 40V23.536C114.444 22.16 114.092 21.056 113.388 20.224C112.684 19.392 111.756 18.976 110.604 18.976C109.292 18.976 108.076 19.424 106.956 20.32C105.868 21.184 104.716 22.688 103.5 24.832L102.444 18.496C103.66 16.416 105.132 14.944 106.86 14.08C108.588 13.184 110.348 12.736 112.14 12.736C114.188 12.736 115.932 13.168 117.372 14.032C118.844 14.896 119.964 16.096 120.732 17.632C121.532 19.168 121.932 20.976 121.932 23.056V40H114.444ZM96.6358 40V13.312H103.884L104.124 18.064V40H96.6358ZM136.687 40V13.312H144.175V40H136.687ZM128.047 40V33.952H152.911V40H128.047ZM131.407 19.36V13.312H140.431V19.36H131.407ZM136.399 9.76V2.752H144.367V9.76H136.399ZM164.737 27.472V20.992H172.273C173.233 20.992 174.065 20.816 174.769 20.464C175.505 20.112 176.065 19.616 176.449 18.976C176.865 18.336 177.073 17.616 177.073 16.816C177.073 16.048 176.881 15.376 176.497 14.8C176.145 14.224 175.649 13.776 175.009 13.456C174.369 13.136 173.633 12.976 172.801 12.976H164.737V6.496H172.801C175.233 6.496 177.377 6.912 179.233 7.744C181.121 8.544 182.593 9.712 183.649 11.248C184.705 12.784 185.233 14.64 185.233 16.816C185.233 18.128 184.913 19.424 184.273 20.704C183.665 21.952 182.769 23.088 181.585 24.112C180.433 25.136 179.025 25.952 177.361 26.56C175.729 27.168 173.873 27.472 171.793 27.472H164.737ZM159.025 40V6.496H166.945V40H159.025ZM177.265 40C177.265 38.592 177.009 37.168 176.497 35.728C175.985 34.256 175.233 32.864 174.241 31.552C173.281 30.208 172.081 28.992 170.641 27.904C169.201 26.816 167.537 25.936 165.649 25.264L174.433 23.488C176.289 24.416 177.905 25.52 179.281 26.8C180.657 28.08 181.793 29.456 182.689 30.928C183.617 32.4 184.305 33.92 184.753 35.488C185.201 37.024 185.425 38.528 185.425 40H177.265ZM203.108 40.576C200.228 40.576 197.748 40.016 195.668 38.896C193.62 37.776 192.036 36.176 190.916 34.096C189.796 32.016 189.236 29.536 189.236 26.656C189.236 23.744 189.796 21.248 190.916 19.168C192.036 17.088 193.652 15.504 195.764 14.416C197.908 13.296 200.484 12.736 203.492 12.736C208.196 12.736 211.604 14.08 213.716 16.768C215.86 19.424 216.756 23.088 216.404 27.76H195.188L195.236 22.624H208.772C208.676 21.408 208.132 20.432 207.14 19.696C206.148 18.928 204.916 18.544 203.444 18.544C201.14 18.544 199.444 19.264 198.356 20.704C197.268 22.144 196.724 24.24 196.724 26.992C196.724 28.368 196.964 29.632 197.444 30.784C197.924 31.936 198.628 32.864 199.556 33.568C200.516 34.24 201.7 34.576 203.108 34.576C204.612 34.576 205.876 34.208 206.9 33.472C207.956 32.736 208.596 31.808 208.82 30.688H216.308C215.988 33.728 214.644 36.144 212.276 37.936C209.94 39.696 206.884 40.576 203.108 40.576ZM236.295 12.736C238.631 12.736 240.679 13.36 242.439 14.608C244.231 15.824 245.639 17.488 246.663 19.6C247.687 21.712 248.199 24.064 248.199 26.656C248.199 29.216 247.687 31.552 246.663 33.664C245.639 35.776 244.231 37.456 242.439 38.704C240.679 39.952 238.631 40.576 236.295 40.576C234.759 40.576 233.335 40.304 232.023 39.76C230.711 39.184 229.591 38.416 228.663 37.456V48.544H221.175V13.312H228.423L228.567 15.904C229.495 14.912 230.615 14.144 231.927 13.6C233.271 13.024 234.727 12.736 236.295 12.736ZM234.375 34.432C235.623 34.432 236.711 34.08 237.639 33.376C238.599 32.672 239.351 31.744 239.895 30.592C240.439 29.408 240.711 28.096 240.711 26.656C240.711 25.184 240.439 23.872 239.895 22.72C239.351 21.536 238.599 20.608 237.639 19.936C236.711 19.232 235.623 18.88 234.375 18.88C233.063 18.88 231.895 19.28 230.871 20.08C229.847 20.88 229.111 21.952 228.663 23.296V29.968C229.111 31.312 229.847 32.4 230.871 33.232C231.895 34.032 233.063 34.432 234.375 34.432Z" fill="white"/>
<path d="M67.8331 63.192C66.8624 63.192 66.0197 62.9413 65.3051 62.44C64.5904 61.928 64.0411 61.2347 63.6571 60.36C63.2731 59.4853 63.0811 58.4987 63.0811 57.4C63.0811 56.2267 63.2837 55.208 63.6891 54.344C64.0944 53.48 64.6544 52.8133 65.3691 52.344C66.0944 51.8747 66.9264 51.64 67.8651 51.64C68.6437 51.64 69.3317 51.7947 69.9291 52.104C70.5371 52.4027 71.0331 52.8293 71.4171 53.384C71.8011 53.9387 72.0304 54.5947 72.1051 55.352H70.9211C70.8251 54.52 70.4997 53.8533 69.9451 53.352C69.3904 52.8507 68.6864 52.6 67.8331 52.6C67.1184 52.6 66.4891 52.8027 65.9451 53.208C65.4011 53.6027 64.9797 54.1627 64.6811 54.888C64.3824 55.6133 64.2331 56.456 64.2331 57.416C64.2331 58.3973 64.3877 59.2507 64.6971 59.976C65.0171 60.6907 65.4491 61.2453 65.9931 61.64C66.5371 62.0347 67.1504 62.232 67.8331 62.232C68.4304 62.232 68.9531 62.1093 69.4011 61.864C69.8491 61.6187 70.2117 61.2773 70.4891 60.84C70.7664 60.4027 70.9264 59.896 70.9691 59.32H72.1691C72.0944 60.088 71.8704 60.7653 71.4971 61.352C71.1237 61.9387 70.6224 62.392 69.9931 62.712C69.3744 63.032 68.6544 63.192 67.8331 63.192ZM82.7993 63V51.832H90.6393V52.792H83.8553V56.728H88.6873V57.688H83.8553V62.04H90.7033V63H82.7993ZM102.678 57.992V57.048H105.718C106.283 57.048 106.784 56.9573 107.222 56.776C107.67 56.5947 108.016 56.3387 108.262 56.008C108.518 55.6667 108.646 55.272 108.646 54.824C108.646 54.3973 108.534 54.0347 108.31 53.736C108.096 53.4373 107.803 53.208 107.43 53.048C107.056 52.8773 106.64 52.792 106.182 52.792H102.678V51.832H106.182C106.875 51.832 107.494 51.9493 108.038 52.184C108.582 52.4187 109.008 52.76 109.318 53.208C109.638 53.656 109.798 54.1947 109.798 54.824C109.798 55.24 109.702 55.64 109.51 56.024C109.328 56.408 109.062 56.7493 108.71 57.048C108.358 57.336 107.926 57.5653 107.414 57.736C106.912 57.9067 106.336 57.992 105.686 57.992H102.678ZM101.91 63V51.832H102.982V63H101.91ZM108.55 63C108.443 62.4773 108.278 61.9707 108.054 61.48C107.83 60.9893 107.531 60.52 107.158 60.072C106.784 59.624 106.326 59.1973 105.782 58.792C105.248 58.3867 104.614 58.008 103.878 57.656L105.078 57.352C105.846 57.736 106.496 58.1413 107.03 58.568C107.574 58.9947 108.022 59.448 108.374 59.928C108.736 60.3973 109.014 60.888 109.206 61.4C109.408 61.912 109.547 62.4453 109.622 63H108.55ZM120.732 63V51.832H128.572V52.792H121.788V56.728H126.62V57.688H121.788V62.04H128.636V63H120.732ZM138.786 63L139.666 51.832H141.138L143.106 59.736L143.458 61.432L143.826 59.736L145.826 51.832H147.266L148.162 63H147.106L146.514 55.032L146.418 53L145.954 55.032L143.954 63H142.898L140.946 55.032L140.53 52.952L140.402 55.032L139.826 63H138.786ZM162.44 63.192C161.512 63.192 160.707 62.9573 160.024 62.488C159.342 62.008 158.814 61.336 158.44 60.472C158.067 59.5973 157.88 58.5787 157.88 57.416C157.88 56.2533 158.067 55.24 158.44 54.376C158.814 53.5013 159.342 52.8293 160.024 52.36C160.707 51.88 161.512 51.64 162.44 51.64C163.368 51.64 164.174 51.88 164.856 52.36C165.539 52.8293 166.067 53.5013 166.44 54.376C166.814 55.24 167 56.2533 167 57.416C167 58.5787 166.814 59.5973 166.44 60.472C166.067 61.336 165.539 62.008 164.856 62.488C164.174 62.9573 163.368 63.192 162.44 63.192ZM162.44 62.232C163.134 62.232 163.736 62.0347 164.248 61.64C164.76 61.2347 165.155 60.6693 165.432 59.944C165.72 59.2187 165.864 58.376 165.864 57.416C165.864 56.456 165.72 55.6133 165.432 54.888C165.155 54.1627 164.76 53.6027 164.248 53.208C163.736 52.8027 163.134 52.6 162.44 52.6C161.747 52.6 161.144 52.8027 160.632 53.208C160.12 53.6133 159.72 54.1787 159.432 54.904C159.155 55.6187 159.016 56.456 159.016 57.416C159.016 58.376 159.155 59.2187 159.432 59.944C159.72 60.6693 160.12 61.2347 160.632 61.64C161.144 62.0347 161.747 62.232 162.44 62.232ZM177.439 63V51.832H178.719L184.399 61.496L184.303 58.456V51.832H185.359V63H184.095L178.399 53.4L178.495 56.36V63H177.439ZM199.797 63V58.472L195.973 51.832H197.189L199.285 55.464L200.341 57.48L201.429 55.448L203.525 51.832H204.725L200.869 58.472V63H199.797Z" fill="url(#paint0_linear_3190_168)"/>
<defs>
<linearGradient id="paint0_linear_3190_168" x1="62.3931" y1="46" x2="68.5088" y2="86.6654" gradientUnits="userSpaceOnUse">
<stop stop-color="#FEE4CB"/>
<stop offset="1" stop-color="#DBF2F2"/>
</linearGradient>
<clipPath id="clip0_3190_168">
<rect width="54.3932" height="64" fill="white"/>
</clipPath>
</defs>
</svg>
