<svg width="68" height="80" viewBox="0 0 68 80" fill="none" xmlns="http://www.w3.org/2000/svg">
<g clip-path="url(#clip0_504_1050)">
<path fill-rule="evenodd" clip-rule="evenodd" d="M2 0C0.895431 0 0 0.895429 0 2V49.8824C0 66.5159 13.4841 80 30.1176 80C31.1572 80 32 79.1572 32 78.1176V2C32 0.895431 31.1046 0 30 0H2ZM16 4C16 10.6274 10.6274 16 4 16C10.6274 16 16 21.3726 16 28C16 21.3726 21.3726 16 28 16C21.3726 16 16 10.6274 16 4Z" fill="#a3ece1"/>
<path fill-rule="evenodd" clip-rule="evenodd" d="M38 80C36.8954 80 36 79.1046 36 78L36 30.1176C36 13.4841 49.4841 -2.36055e-06 66.1176 -3.8147e-06C67.1572 -3.90558e-06 68 0.842754 68 1.88235L68 78C68 79.1046 67.1046 80 66 80H38ZM52 76C52 69.3726 46.6274 64 40 64C46.6274 64 52 58.6274 52 52C52 58.6274 57.3726 64 64 64C57.3726 64 52 69.3726 52 76Z" fill="#a3ece1"/>
</g>
<defs>
<clipPath id="clip0_504_1050">
<rect width="68" height="80" fill="white"/>
</clipPath>
</defs>
</svg>