<svg width="55" height="64" viewBox="0 0 55 64" fill="none" xmlns="http://www.w3.org/2000/svg">
<g clip-path="url(#clip0_3765_1165)">
<path fill-rule="evenodd" clip-rule="evenodd" d="M1.5998 0C0.716255 0 0 0.716343 0 1.6V39.9059C0 53.2127 10.786 64 24.0911 64C24.9227 64 25.5968 63.3258 25.5968 62.4941V1.6C25.5968 0.716344 24.8806 0 23.997 0H1.5998ZM12.7984 3.2C12.7984 8.50193 8.50088 12.8 3.1996 12.8C8.50088 12.8 12.7984 17.0981 12.7984 22.4C12.7984 17.0981 17.0959 12.8 22.3972 12.8C17.0959 12.8 12.7984 8.50193 12.7984 3.2Z" fill="#A3ECE1"/>
<path fill-rule="evenodd" clip-rule="evenodd" d="M30.3965 64C29.513 64 28.7967 63.2837 28.7967 62.4L28.7967 24.0941C28.7967 10.7873 39.5827 1.16332e-06 52.8879 0C53.7194 -7.27074e-08 54.3935 0.674206 54.3935 1.50588L54.3936 62.4C54.3936 63.2837 53.6773 64 52.7938 64H30.3965ZM41.5951 60.8C41.5951 55.4981 37.2976 51.2 31.9963 51.2C37.2976 51.2 41.5951 46.9019 41.5951 41.6C41.5951 46.9019 45.8927 51.2 51.194 51.2C45.8927 51.2 41.5951 55.4981 41.5951 60.8Z" fill="#A3ECE1"/>
</g>
<defs>
<clipPath id="clip0_3765_1165">
<rect width="54.3932" height="64" fill="white"/>
</clipPath>
</defs>
</svg>
