<svg width="512" height="512" viewBox="0 0 512 512" fill="none" xmlns="http://www.w3.org/2000/svg">
<rect width="512" height="512" rx="8" fill="#151616"/>
<g clip-path="url(#clip0_2132_3014)">
<path fill-rule="evenodd" clip-rule="evenodd" d="M142.1 114C138.179 114 135 117.179 135 121.1V291.082C135 350.131 182.869 398 241.918 398C245.608 398 248.6 395.008 248.6 391.318V121.1C248.6 117.179 245.421 114 241.5 114H142.1ZM191.8 128.2C191.8 151.727 172.727 170.8 149.2 170.8C172.727 170.8 191.8 189.873 191.8 213.4C191.8 189.873 210.873 170.8 234.4 170.8C210.873 170.8 191.8 151.727 191.8 128.2Z" fill="#28C7FA"/>
<path fill-rule="evenodd" clip-rule="evenodd" d="M269.9 398C265.979 398 262.8 394.821 262.8 390.9L262.8 220.918C262.8 161.869 310.669 114 369.718 114C373.408 114 376.4 116.992 376.4 120.682L376.4 390.9C376.4 394.821 373.221 398 369.3 398H269.9ZM319.6 383.8C319.6 360.273 300.527 341.2 277 341.2C300.527 341.2 319.6 322.127 319.6 298.6C319.6 322.127 338.673 341.2 362.2 341.2C338.673 341.2 319.6 360.273 319.6 383.8Z" fill="#F5841A"/>
</g>
<defs>
<clipPath id="clip0_2132_3014">
<rect width="241.4" height="284" fill="white" transform="translate(135 114)"/>
</clipPath>
</defs>
</svg>
